<svg width="126" height="32" viewBox="0 0 126 32" fill="none" xmlns="http://www.w3.org/2000/svg">
<path d="M20.2799 2.6792C22.6109 4.02087 24.4397 5.88191 25.7683 8.2623C27.0963 10.6427 27.7603 13.3333 27.7603 16.334C27.7603 19.3354 27.0963 22.0253 25.7683 24.4057C24.4397 26.7861 22.6109 28.6471 20.2799 29.9888C17.9488 31.3305 15.3141 32.0013 12.3756 32.0013C9.74789 32.0013 7.38085 31.5396 5.27658 30.6163C3.1716 29.693 1.41274 28.3514 0 26.5913L4.36536 22.4364C6.45621 24.832 9.01256 26.0287 12.0365 26.0287C14.2121 26.0287 16.0558 25.3795 17.5674 24.0811C19.0783 22.7827 20.0609 21.0371 20.513 18.8442H8.47643V13.4775H20.4282C19.9472 11.4001 18.9589 9.74103 17.4614 8.50034C15.9632 7.26037 14.1556 6.6393 12.0365 6.6393C9.01256 6.6393 6.45621 7.83671 4.36536 10.2315L0 6.07667C1.41274 4.31734 3.1716 2.97567 5.27658 2.05164C7.38085 1.12834 9.74789 0.666687 12.3756 0.666687C15.3141 0.666687 17.9488 1.33752 20.2799 2.6792Z" fill="#203686"/>
<path d="M44.6289 19.2762H39.8821V31.4811H33.0586V1.18518H39.8821V13.4334H44.7984L52.5968 1.18518H59.8441L50.1386 15.8138L60.1408 31.4811H52.3425L44.6289 19.2762Z" fill="#203686"/>
<path d="M119.961 2.52686C121.896 3.42131 123.387 4.69085 124.432 6.33548C125.477 7.98012 126 9.92771 126 12.1783C126 14.4007 125.477 16.3403 124.432 17.9994C123.387 19.6592 121.896 20.928 119.961 21.808C118.025 22.6888 115.744 23.1281 113.116 23.1281H107.14V31.4811H100.274V1.18518H113.116C115.744 1.18518 118.025 1.63241 119.961 2.52686ZM117.439 16.0518C118.513 15.1429 119.05 13.8517 119.05 12.1783C119.05 10.4759 118.513 9.17031 117.439 8.26144C116.365 7.35256 114.797 6.89812 112.735 6.89812H107.14V17.4151H112.735C114.797 17.4151 116.365 16.9607 117.439 16.0518Z" fill="#203686"/>
<path d="M72.5107 29.6915C72.5107 29.6915 78.9203 33.4828 86.6826 29.6533C94.4449 25.8237 95.4042 19.2337 95.7291 16.3606C96.0533 13.4868 95.0814 9.12277 93.148 8.02634C91.2154 6.9292 90.6023 8.76787 90.6602 9.47333C90.7181 10.1788 92.2114 12.7381 92.7404 15.2418C93.2695 17.7448 92.9396 22.1262 89.9425 25.6852C86.9454 29.2436 80.4327 32.5033 72.6824 29.3164L72.5107 29.6915Z" fill="#FFAB01"/>
<path d="M77.0938 29.491C77.0938 29.491 81.9119 30.6026 87.3686 26.4903C92.8259 22.3787 92.3499 14.4722 90.6178 14.0603C89.1069 13.7011 88.7311 15.0233 88.8929 16.0021C89.0539 16.981 89.5717 19.1767 89.1437 20.9468C88.7142 22.717 85.5935 29.5422 77.0938 29.491Z" fill="#FFAB01"/>
<path d="M80.2998 28.1368C80.2998 28.1368 82.7714 27.8901 85.6427 25.1058C88.5141 22.3215 87.3938 18.9478 86.0227 18.7833C84.6524 18.6196 84.699 19.8487 84.8198 20.5823C84.9406 21.3159 85.6759 22.7045 84.4843 24.8108C83.2927 26.9171 81.2739 27.6694 80.2998 28.1368Z" fill="#FFAB01"/>
<path d="M66.2494 31.6249C66.2494 31.6249 66.8696 28.9444 68.0994 27.1411C68.0994 27.1411 70.4212 28.8867 74.1078 30.4362C74.1078 30.4362 73.7348 25.8788 67.4403 22.5398C67.4403 22.5398 65.6348 16.464 70.227 14.7955C72.4683 13.9812 75.7974 14.4904 79.4331 13.8917C78.1376 13.0506 76.205 11.3736 75.8412 8.69164C73.9707 8.63105 66.6386 8.90299 65.6497 16.8016C65.6497 16.8016 65.2068 8.00422 75.7819 7.88087C75.767 6.75054 76.0256 5.46152 76.6945 4.00588C76.6945 4.00588 74.2314 10.3384 80.6678 13.6436C84.1305 12.8205 87.7838 10.7849 90.9872 5.53294C90.9872 5.53294 84.9138 -1.82392 75.9641 0.4288C67.0158 2.68368 60.0474 12.3603 65.7125 23.3491C65.7125 23.3491 63.6789 27.5588 66.2494 31.6249ZM81.6864 6.27807C81.1305 5.77314 81.0917 4.91476 81.6017 4.36222C82.1117 3.80968 82.9755 3.77217 83.5322 4.27782C84.0895 4.78347 84.1269 5.64186 83.6169 6.19368C83.1083 6.74621 82.2437 6.78372 81.6864 6.27807Z" fill="#203686"/>
<path d="M69.1236 3.35221C69.1236 3.35221 65.4207 5.82854 63.7233 11.2097C63.7233 11.2097 62.3134 6.35944 64.6035 2.81482L69.1236 3.35221Z" fill="#203686"/>
<path d="M76.9782 14.7407L72.2795 14.8706L71.0264 17.4089C71.0271 17.4089 73.7155 18.1569 76.9782 14.7407Z" fill="#203686"/>
</svg>
