<svg width="24" height="24" viewBox="0 0 24 24" fill="none" xmlns="http://www.w3.org/2000/svg">
<path d="M2.5 9L12 2L22 9L21.5 22.5L15 23V15H9V23L2.5 22.5V9Z" fill="#203686"/>
<path d="M15 23H19.4576C20.8618 23 22 21.8048 22 20.3305V10.7107C22 9.62941 21.5319 8.60677 20.7278 7.9313L14.9681 3.0932C14.1257 2.38552 13.0789 2 12 2C10.9211 2 9.87436 2.38552 9.03191 3.0932L3.27225 7.9313C2.46814 8.60677 2 9.62941 2 10.7107V20.3305C2 21.8048 3.13826 23 4.54237 23H9" stroke="#203686" stroke-width="2" stroke-miterlimit="10" stroke-linecap="round" stroke-linejoin="round"/>
<path d="M9 23V16.5238C9 15.381 9.5639 15 10.5 15H13.5C14.4361 15 15 15.381 15 16.5238V23" stroke="#203686" stroke-width="2" stroke-miterlimit="10" stroke-linecap="round" stroke-linejoin="round"/>
</svg>
