<svg width="24" height="24" viewBox="0 0 24 24" fill="none" xmlns="http://www.w3.org/2000/svg">
<rect x="14" y="17" width="4" height="4" rx="2" fill="#203686"/>
<rect x="6.5" y="17" width="4" height="4" rx="2" fill="#203686"/>
<path d="M5.5 5L20.5 6.5L17 14H6.5L5.5 5Z" fill="#203686"/>
<path fill-rule="evenodd" clip-rule="evenodd" d="M6.3083 4.32088C6.1378 4.32051 5.97345 4.33981 5.81727 4.37649C5.60317 3.90461 5.32037 3.48126 4.99872 3.15962C4.4528 2.61369 3.59179 2.39844 2.3999 2.39844V4.31844C3.12801 4.31844 3.54701 4.42319 3.64108 4.51726C4.00393 4.88011 4.3199 5.61738 4.3199 6.23844L4.32955 6.3742L5.27023 12.9589C3.69624 13.0406 2.47689 14.2629 2.40108 15.7909L2.3999 16.7984C2.49285 18.3766 3.70815 19.5906 5.22541 19.6769L5.44335 19.6772C5.83837 20.7964 6.90548 21.5984 8.1599 21.5984C9.41387 21.5984 10.4807 20.797 10.876 19.6784H13.1238C13.5191 20.797 14.5859 21.5984 15.8399 21.5984C17.4305 21.5984 18.7199 20.309 18.7199 18.7184C18.7199 17.1279 17.4305 15.8384 15.8399 15.8384C14.5859 15.8384 13.5191 16.6399 13.1238 17.7584H10.876C10.4807 16.6399 9.41387 15.8384 8.1599 15.8384C6.90593 15.8384 5.83914 16.6399 5.44378 17.7584H5.2799C4.79031 17.7291 4.35114 17.2903 4.31818 16.741L4.3199 15.8384C4.34579 15.3405 4.78196 14.9043 5.32747 14.8773L7.22265 14.8777L7.23638 14.8784H16.9121L17.0538 14.8335C17.7817 14.6025 18.3644 14.0544 18.6402 13.3449L18.7414 13.1447L19.07 12.4937C19.4099 11.8198 19.7499 11.1448 20.0812 10.4853C20.8926 8.86987 21.4029 7.84323 21.5159 7.59113C22.0963 6.29647 20.9206 5.3 19.719 5.27878L6.3083 4.32088ZM16.5788 12.9615H7.30851C7.24687 12.9443 7.19989 12.8921 7.1907 12.8271L6.25 6.24219L19.5778 7.19661C19.3446 7.67219 18.9207 8.52164 18.3657 9.62653L18.3518 9.65421C18.035 10.2849 17.6955 10.959 17.356 11.632L17.0278 12.2821L16.9034 12.5284L16.8566 12.6372C16.8064 12.7769 16.7069 12.8917 16.5788 12.9615ZM15.8399 19.67C16.3701 19.67 16.7999 19.2402 16.7999 18.71C16.7999 18.1798 16.3701 17.75 15.8399 17.75C15.3097 17.75 14.8799 18.1798 14.8799 18.71C14.8799 19.2402 15.3097 19.67 15.8399 19.67ZM9.11971 18.71C9.11971 19.2402 8.6899 19.67 8.15971 19.67C7.62951 19.67 7.19971 19.2402 7.19971 18.71C7.19971 18.1798 7.62951 17.75 8.15971 17.75C8.6899 17.75 9.11971 18.1798 9.11971 18.71Z" fill="#203686"/>
</svg>
